<?xml version="1.0" encoding="UTF-8" standalone="no"?>
<!-- Created with Inkscape (http://www.inkscape.org/) -->

<svg
   xmlns:dc="http://purl.org/dc/elements/1.1/"
   xmlns:cc="http://creativecommons.org/ns#"
   xmlns:rdf="http://www.w3.org/1999/02/22-rdf-syntax-ns#"
   xmlns:svg="http://www.w3.org/2000/svg"
   xmlns="http://www.w3.org/2000/svg"
   xmlns:sodipodi="http://sodipodi.sourceforge.net/DTD/sodipodi-0.dtd"
   xmlns:inkscape="http://www.inkscape.org/namespaces/inkscape"
   id="svg2"
   version="1.1"
   inkscape:version="0.92.4 (unknown)"
   width="156"
   height="180"
   xml:space="preserve"
   sodipodi:docname="experimenta.svg"><metadata
     id="metadata8"><rdf:RDF><cc:Work
         rdf:about=""><dc:format>image/svg+xml</dc:format><dc:type
           rdf:resource="http://purl.org/dc/dcmitype/StillImage" /><dc:title /></cc:Work></rdf:RDF></metadata><defs
     id="defs6"><clipPath
       clipPathUnits="userSpaceOnUse"
       id="clipPath24"><path
         d="m 0,198.425 198.425,0 L 198.425,0 0,0 0,198.425 z"
         id="path26"
         inkscape:connector-curvature="0" /></clipPath><clipPath
       clipPathUnits="userSpaceOnUse"
       id="clipPath120"><path
         d="m 1688.09,2000.39 v 0 l 199.77,188.04 c -1.44,-0.09 -15.57,-0.76 -22.91,3.09 -6.38,3.37 -12.97,7.83 -22.46,18.85 l -128.55,151.56 -247.3,-187.32 -123.25,-93.36 c 0,0 -69.74,-45.45 -67.76,-107.38 2.55,-78.95 90.75,-113.55 90.75,-113.55 l 519.92,-222.87 c 60.2,-22.87 129.83,-41.37 193.13,-42.89 57.46,-1.36 115.94,19.27 177.96,37.99 l 420.4,143.56 c 21.39,7.09 55.3,28.02 55.3,53.94 0,20.27 -26.69,46.33 -56.57,59.46 -49.47,21.69 -93.95,25.03 -145.41,20.23 -79.75,-7.42 -440.52,-129.83 -440.52,-129.83 0,0 -393.69,171.37 -401.42,174.65 -7.6,3.23 -18.87,9.21 -15.42,26.74 1.76,8.93 14.34,19.09 14.34,19.09 z"
         id="path118"
         inkscape:connector-curvature="0" /></clipPath><linearGradient
       x1="0"
       y1="0"
       x2="1"
       y2="0"
       gradientUnits="userSpaceOnUse"
       gradientTransform="matrix(1457.5,0,0,-1457.5,1275.59,1978.21)"
       spreadMethod="pad"
       id="linearGradient132"><stop
         style="stop-opacity:1;stop-color:#bf1251"
         offset="0"
         id="stop122" /><stop
         style="stop-opacity:1;stop-color:#bf1251"
         offset="0.156212"
         id="stop124" /><stop
         style="stop-opacity:1;stop-color:#941a54"
         offset="0.36583257"
         id="stop126" /><stop
         style="stop-opacity:1;stop-color:#941a54"
         offset="0.572051"
         id="stop128" /><stop
         style="stop-opacity:1;stop-color:#941a54"
         offset="1"
         id="stop130" /></linearGradient><clipPath
       clipPathUnits="userSpaceOnUse"
       id="clipPath144"><path
         d="m 1887.98,2188.43 c 0,0 -15.3,-0.98 -23.03,3.09 -6.38,3.37 -12.97,7.83 -22.46,18.85 l -130.19,153.49 -51.08,60.23 c -4.94,5.8 -6.93,13.48 -6.93,21.51 0,13.01 6.76,24.46 16.96,31.02 l 304.37,196.46 c 0,0 17.92,12.17 30.71,14.76 12.13,2.45 31.64,-1.52 31.64,-1.52 l 279.99,-44.77 c 48.4,-7.78 104.95,-4.62 159.27,8.82 32.97,8.18 73.15,21.17 91.47,49.34 17.26,26.47 -10.08,49.22 -18.87,55.57 -35.29,25.44 -79.23,32.48 -121.72,39.3 l -432.6,69.22 c -60.4,9.7 -122.38,9.33 -184.57,-9.6 -34.82,-10.62 -63.76,-22.54 -90.31,-40.23 l -400.18,-267.56 c -24.28,-17.23 -41.35,-44.42 -44.79,-76.36 -3.35,-31.37 7.14,-61.03 26.54,-82.91 l 3.52,-4.59 222.75,-287.82 c 28.42,-36.73 69.01,-64.97 109.99,-81.89 16.8,-6.95 49.63,-12.45 49.63,-12.45 z"
         id="path142"
         inkscape:connector-curvature="0" /></clipPath><linearGradient
       x1="0"
       y1="0"
       x2="1"
       y2="0"
       gradientUnits="userSpaceOnUse"
       gradientTransform="matrix(347.257,954.082,954.082,-347.257,1704.1,1988.87)"
       spreadMethod="pad"
       id="linearGradient156"><stop
         style="stop-opacity:1;stop-color:#ec008c"
         offset="0"
         id="stop146" /><stop
         style="stop-opacity:1;stop-color:#ec008c"
         offset="0.218676"
         id="stop148" /><stop
         style="stop-opacity:1;stop-color:#ee222d"
         offset="0.623462"
         id="stop150" /><stop
         style="stop-opacity:1;stop-color:#f89c21"
         offset="0.9004"
         id="stop152" /><stop
         style="stop-opacity:1;stop-color:#f89c21"
         offset="1"
         id="stop154" /></linearGradient><clipPath
       clipPathUnits="userSpaceOnUse"
       id="clipPath144-3"><path
         d="m 1887.98,2188.43 c 0,0 -15.3,-0.98 -23.03,3.09 -6.38,3.37 -12.97,7.83 -22.46,18.85 l -130.19,153.49 -51.08,60.23 c -4.94,5.8 -6.93,13.48 -6.93,21.51 0,13.01 6.76,24.46 16.96,31.02 l 304.37,196.46 c 0,0 17.92,12.17 30.71,14.76 12.13,2.45 31.64,-1.52 31.64,-1.52 l 279.99,-44.77 c 48.4,-7.78 104.95,-4.62 159.27,8.82 32.97,8.18 73.15,21.17 91.47,49.34 17.26,26.47 -10.08,49.22 -18.87,55.57 -35.29,25.44 -79.23,32.48 -121.72,39.3 l -432.6,69.22 c -60.4,9.7 -122.38,9.33 -184.57,-9.6 -34.82,-10.62 -63.76,-22.54 -90.31,-40.23 l -400.18,-267.56 c -24.28,-17.23 -41.35,-44.42 -44.79,-76.36 -3.35,-31.37 7.14,-61.03 26.54,-82.91 l 3.52,-4.59 222.75,-287.82 c 28.42,-36.73 69.01,-64.97 109.99,-81.89 16.8,-6.95 49.63,-12.45 49.63,-12.45 z"
         id="path142-6"
         inkscape:connector-curvature="0" /></clipPath><clipPath
       clipPathUnits="userSpaceOnUse"
       id="clipPath120-2"><path
         d="m 1688.09,2000.39 v 0 l 199.77,188.04 c -1.44,-0.09 -15.57,-0.76 -22.91,3.09 -6.38,3.37 -12.97,7.83 -22.46,18.85 l -128.55,151.56 -247.3,-187.32 -123.25,-93.36 c 0,0 -69.74,-45.45 -67.76,-107.38 2.55,-78.95 90.75,-113.55 90.75,-113.55 l 519.92,-222.87 c 60.2,-22.87 129.83,-41.37 193.13,-42.89 57.46,-1.36 115.94,19.27 177.96,37.99 l 420.4,143.56 c 21.39,7.09 55.3,28.02 55.3,53.94 0,20.27 -26.69,46.33 -56.57,59.46 -49.47,21.69 -93.95,25.03 -145.41,20.23 -79.75,-7.42 -440.52,-129.83 -440.52,-129.83 0,0 -393.69,171.37 -401.42,174.65 -7.6,3.23 -18.87,9.21 -15.42,26.74 1.76,8.93 14.34,19.09 14.34,19.09 z"
         id="path118-9"
         inkscape:connector-curvature="0" /></clipPath><clipPath
       clipPathUnits="userSpaceOnUse"
       id="clipPath98"><path
         d="m 1887.86,2188.43 c 0.07,0 0.12,0 0.12,0"
         id="path96"
         inkscape:connector-curvature="0" /></clipPath><linearGradient
       x1="0"
       y1="0"
       x2="1"
       y2="0"
       gradientUnits="userSpaceOnUse"
       gradientTransform="matrix(0.12207,0,0,-0.12207,1887.86,2188.43)"
       spreadMethod="pad"
       id="linearGradient110"><stop
         style="stop-opacity:1;stop-color:#bf1251"
         offset="0"
         id="stop100" /><stop
         style="stop-opacity:1;stop-color:#bf1251"
         offset="0.156212"
         id="stop102" /><stop
         style="stop-opacity:1;stop-color:#941a54"
         offset="0.36583257"
         id="stop104" /><stop
         style="stop-opacity:1;stop-color:#941a54"
         offset="0.572051"
         id="stop106" /><stop
         style="stop-opacity:1;stop-color:#941a54"
         offset="1"
         id="stop108" /></linearGradient><clipPath
       clipPathUnits="userSpaceOnUse"
       id="clipPath76"><path
         d="m 1688.09,2000.39 346.6,326.27 c 14.85,12.92 27.33,28.19 44.35,30.55 20.15,2.77 50.57,-18.6 56.08,-21.8 6.06,-3.55 181.52,-112.69 213.39,-131.88 l 267.17,-164.79 c 72.21,21.84 122.32,77.85 126.63,134.5 3.4,44.58 -19.38,75.75 -51.2,95.77 -0.09,0.05 -42.14,26.05 -42.14,26.05 h 0.01 c 0,0 -296.91,175.13 -380.74,223.74 -52.39,30.38 -125.83,51.52 -185.91,50.4 -79.93,-1.48 -146.3,-39.44 -207.87,-85.68 v 0 l -407.82,-308.91 61.83,-79.88 c 28.42,-36.73 69.01,-64.97 109.99,-81.89 16.81,-6.95 49.63,-12.45 49.63,-12.45 z"
         id="path74"
         inkscape:connector-curvature="0" /></clipPath><linearGradient
       x1="0"
       y1="0"
       x2="1"
       y2="0"
       gradientUnits="userSpaceOnUse"
       gradientTransform="matrix(552.546,-658.499,-658.499,-552.546,1849.97,2496.26)"
       spreadMethod="pad"
       id="linearGradient88"><stop
         style="stop-opacity:1;stop-color:#bf1251"
         offset="0"
         id="stop78" /><stop
         style="stop-opacity:1;stop-color:#bf1251"
         offset="0.157087"
         id="stop80" /><stop
         style="stop-opacity:1;stop-color:#ec008c"
         offset="0.46245352"
         id="stop82" /><stop
         style="stop-opacity:1;stop-color:#ec008c"
         offset="0.59199"
         id="stop84" /><stop
         style="stop-opacity:1;stop-color:#ec008c"
         offset="1"
         id="stop86" /></linearGradient></defs><sodipodi:namedview
     pagecolor="#ffffff"
     bordercolor="#666666"
     borderopacity="1"
     objecttolerance="10"
     gridtolerance="10"
     guidetolerance="10"
     inkscape:pageopacity="0"
     inkscape:pageshadow="2"
     inkscape:window-width="1853"
     inkscape:window-height="1025"
     id="namedview4"
     showgrid="false"
     inkscape:zoom="2.639847"
     inkscape:cx="153.90129"
     inkscape:cy="91.849741"
     inkscape:window-x="67"
     inkscape:window-y="27"
     inkscape:window-maximized="1"
     inkscape:current-layer="g12" /><g
     id="g10"
     inkscape:groupmode="layer"
     inkscape:label="Codefor_Hex_sticker_ALL"
     transform="matrix(1.25,0,0,-1.25,0,180)"><g
       id="g12"
       transform="translate(125,36)"><path
         inkscape:connector-curvature="0"
         d="m -0.2,0 -62.4,-36 -62.4,36 0,72 62.4,36 62.4,-36 z"
         style="fill:#232323;fill-opacity:1;fill-rule:nonzero;stroke:none"
         id="path14"
         sodipodi:nodetypes="ccccccc" /></g><g
       id="g1014"
       transform="matrix(0.1753238,0,0,0.22044669,21.457567,94.396084)"><g
         id="g70"
         transform="matrix(0.10666666,0,0,0.10666666,14.221363,-135.67987)"><g
           clip-path="url(#clipPath76)"
           id="g72"><path
             inkscape:connector-curvature="0"
             id="path90"
             style="fill:url(#linearGradient88);fill-opacity:1;fill-rule:nonzero;stroke:none"
             d="m 1688.09,2000.39 346.6,326.27 c 14.85,12.92 27.33,28.19 44.35,30.55 20.15,2.77 50.57,-18.6 56.08,-21.8 6.06,-3.55 181.52,-112.69 213.39,-131.88 l 267.17,-164.79 c 72.21,21.84 122.32,77.85 126.63,134.5 3.4,44.58 -19.38,75.75 -51.2,95.77 -0.09,0.05 -42.14,26.05 -42.14,26.05 h 0.01 c 0,0 -296.91,175.13 -380.74,223.74 -52.39,30.38 -125.83,51.52 -185.91,50.4 -79.93,-1.48 -146.3,-39.44 -207.87,-85.68 v 0 l -407.82,-308.91 61.83,-79.88 c 28.42,-36.73 69.01,-64.97 109.99,-81.89 16.81,-6.95 49.63,-12.45 49.63,-12.45" /></g></g><g
         id="g92"
         transform="matrix(0.10666666,0,0,0.10666666,14.221363,-135.67987)"><g
           clip-path="url(#clipPath98)"
           id="g94"><path
             inkscape:connector-curvature="0"
             id="path112"
             style="fill:url(#linearGradient110);fill-opacity:1;fill-rule:nonzero;stroke:none"
             d="m 1887.86,2188.43 c 0.07,0 0.12,0 0.12,0" /></g></g><g
         id="g114"
         transform="matrix(0.10666666,0,0,0.10666666,14.221363,-135.67987)"><g
           clip-path="url(#clipPath120-2)"
           id="g116"><path
             inkscape:connector-curvature="0"
             id="path134"
             style="fill:url(#linearGradient132);fill-opacity:1;fill-rule:nonzero;stroke:none"
             d="m 1688.09,2000.39 v 0 l 199.77,188.04 c -1.44,-0.09 -15.57,-0.76 -22.91,3.09 -6.38,3.37 -12.97,7.83 -22.46,18.85 l -128.55,151.56 -247.3,-187.32 -123.25,-93.36 c 0,0 -69.74,-45.45 -67.76,-107.38 2.55,-78.95 90.75,-113.55 90.75,-113.55 l 519.92,-222.87 c 60.2,-22.87 129.83,-41.37 193.13,-42.89 57.46,-1.36 115.94,19.27 177.96,37.99 l 420.4,143.56 c 21.39,7.09 55.3,28.02 55.3,53.94 0,20.27 -26.69,46.33 -56.57,59.46 -49.47,21.69 -93.95,25.03 -145.41,20.23 -79.75,-7.42 -440.52,-129.83 -440.52,-129.83 0,0 -393.69,171.37 -401.42,174.65 -7.6,3.23 -18.87,9.21 -15.42,26.74 1.76,8.93 14.34,19.09 14.34,19.09" /></g></g><path
         inkscape:connector-curvature="0"
         id="path136"
         style="fill:#ec008c;fill-opacity:1;fill-rule:nonzero;stroke:none;stroke-width:0.10666666"
         d="m 293.22722,81.785731 c 7.7024,2.3296 13.04746,8.304 13.5072,14.346663 0.36266,4.755196 -2.0672,8.079996 -5.46134,10.215466 -0.01,0.005 -4.49493,2.77867 -4.49493,2.77867 l -32.04906,-9.763202 -49.1232,-1.610667 c 0,0 -0.005,0 -0.0128,0 -0.1536,-0.0096 -1.6608,-0.08107 -2.44373,0.3296 -0.68054,0.359467 -1.38347,0.8352 -2.39574,2.010669 l -13.712,16.1664 -26.37866,-19.980802 6.5952,-8.520533 c 3.03146,-3.917864 7.36106,-6.930136 11.73226,-8.734936 1.792,-0.741328 5.2928,-1.328 5.29387,-1.328 v 0 0 0 c 4.0928,-0.567464 10.21973,-0.272 12.7904,-0.349864 13.5648,-0.4096 79.52213,2.4384 86.15253,4.440536" /><g
         id="g138"
         transform="matrix(0.10666666,0,0,0.10666666,14.221363,-135.67987)"><g
           clip-path="url(#clipPath144-3)"
           id="g140"><path
             inkscape:connector-curvature="0"
             id="path158"
             style="fill:url(#linearGradient156);fill-opacity:1;fill-rule:nonzero;stroke:none"
             d="m 1887.98,2188.43 c 0,0 -15.3,-0.98 -23.03,3.09 -6.38,3.37 -12.97,7.83 -22.46,18.85 l -130.19,153.49 -51.08,60.23 c -4.94,5.8 -6.93,13.48 -6.93,21.51 0,13.01 6.76,24.46 16.96,31.02 l 304.37,196.46 c 0,0 17.92,12.17 30.71,14.76 12.13,2.45 31.64,-1.52 31.64,-1.52 l 279.99,-44.77 c 48.4,-7.78 104.95,-4.62 159.27,8.82 32.97,8.18 73.15,21.17 91.47,49.34 17.26,26.47 -10.08,49.22 -18.87,55.57 -35.29,25.44 -79.23,32.48 -121.72,39.3 l -432.6,69.22 c -60.4,9.7 -122.38,9.33 -184.57,-9.6 -34.82,-10.62 -63.76,-22.54 -90.31,-40.23 l -400.18,-267.56 c -24.28,-17.23 -41.35,-44.42 -44.79,-76.36 -3.35,-31.37 7.14,-61.03 26.54,-82.91 l 3.52,-4.59 222.75,-287.82 c 28.42,-36.73 69.01,-64.97 109.99,-81.89 16.8,-6.95 49.63,-12.45 49.63,-12.45 l 199.89,188.04" /></g></g></g></g></svg>